<?xml version="1.0" standalone="no"?>
<!DOCTYPE svg PUBLIC "-//W3C//DTD SVG 20010904//EN"
 "http://www.w3.org/TR/2001/REC-SVG-20010904/DTD/svg10.dtd">
<svg version="1.0" xmlns="http://www.w3.org/2000/svg"
 width="500.000000pt" height="500.000000pt" viewBox="0 0 500.000000 500.000000"
 preserveAspectRatio="xMidYMid meet">

<g transform="translate(0.000000,500.000000) scale(0.100000,-0.100000)"
fill="#000000" stroke="none">
<path d="M1085 3579 c-202 -30 -358 -128 -423 -266 -23 -50 -27 -71 -27 -153
0 -85 3 -101 29 -149 65 -124 183 -198 515 -320 308 -114 421 -183 478 -295
39 -74 39 -179 0 -257 -47 -98 -162 -188 -276 -219 -57 -15 -192 -15 -257 1
-79 18 -204 83 -277 144 -58 48 -154 158 -194 221 -10 15 -12 -3 -12 -98 l-1
-117 82 -51 c95 -58 212 -105 313 -127 91 -20 253 -12 355 17 284 80 442 310
372 538 -52 164 -173 250 -527 372 -200 69 -341 133 -398 180 -20 17 -49 53
-65 78 -23 41 -27 58 -27 127 0 67 5 88 28 132 76 146 206 220 407 230 206 11
361 -63 462 -220 l33 -52 3 104 c1 57 -1 108 -6 113 -16 16 -201 57 -303 68
-116 12 -198 11 -284 -1z"/>
<path d="M2288 3540 c48 -11 80 -46 100 -110 15 -50 17 -123 17 -790 0 -814
-1 -825 -65 -937 -38 -66 -81 -99 -156 -118 l-59 -15 76 3 c60 3 86 10 128 33
90 49 159 144 198 275 14 47 17 154 22 794 6 723 6 741 27 785 25 55 39 67 90
79 27 6 -27 9 -186 9 -130 0 -211 -3 -192 -8z"/>
<path d="M3151 3443 c1 -101 2 -106 14 -77 20 44 86 98 152 123 69 26 206 51
284 51 l59 0 0 -652 c-1 -688 -7 -824 -40 -893 -19 -39 -53 -65 -85 -65 -8 0
-17 -4 -20 -10 -4 -7 67 -10 205 -10 138 0 209 3 205 10 -3 6 -17 10 -29 10
-30 0 -73 43 -88 89 -8 26 -13 238 -15 779 l-4 742 59 0 c79 0 216 -25 285
-51 66 -25 132 -79 152 -123 12 -29 13 -24 14 77 l1 107 -575 0 -575 0 1 -107z"/>
</g>
</svg>
